# xmcd
#
# Track frame offsets: 
#        150
#        8454
#        18590
#        30662
#        49390
#        69057
#        82592
#        95817
#        116070
#        133367
#        153126
#        174714
#        199085
#
# Disc length: 2826 seconds
#
# Revision: 2
# Processed by: cddbd v1.5.2PL0 Copyright (c) Steve Scherf et al.
# Submitted via: ExactAudioCopy v1.1
#
DISCID=a10b080d
DTITLE=Nas - Street's Disciple
DYEAR=2004
DGENRE=Hip-Hop
TTITLE0=Intro
TTITLE1=A Message To The Feds, Sincerely, We The People
TTITLE2=Nazareth Savage
TTITLE3=American Way (feat. Kelis)
TTITLE4=These Are Our Heroes
TTITLE5=Disciple
TTITLE6=Sekou Story (feat. Scarlett)
TTITLE7=Live Now (feat. Scarlett)
TTITLE8=Rest Of My Life
TTITLE9=Just A Moment (feat. Quan)
TTITLE10=Reason (feat. Emily)
TTITLE11=You Know My Style
TTITLE12=data track
EXTD=
EXTT0=
EXTT1=
EXTT2=
EXTT3=
EXTT4=
EXTT5=
EXTT6=
EXTT7=
EXTT8=
EXTT9=
EXTT10=
EXTT11=
EXTT12=
PLAYORDER=
